<svg id="Layer_1" data-name="Layer 1" xmlns="http://www.w3.org/2000/svg" viewBox="0 0 47.06 38.23"><title>twitter</title><g id="Logo_FIXED" data-name="Logo FIXED"><path d="M21.27,49.12c17.76,0,27.47-14.71,27.47-27.47,0-.42,0-.83,0-1.25a19.64,19.64,0,0,0,4.82-5A19.27,19.27,0,0,1,48,16.92a9.69,9.69,0,0,0,4.24-5.34,19.35,19.35,0,0,1-6.13,2.34,9.66,9.66,0,0,0-16.45,8.8A27.41,27.41,0,0,1,9.75,12.64a9.66,9.66,0,0,0,3,12.89,9.58,9.58,0,0,1-4.38-1.21v.12a9.66,9.66,0,0,0,7.75,9.46,9.64,9.64,0,0,1-4.36.17,9.67,9.67,0,0,0,9,6.7,19.37,19.37,0,0,1-12,4.14,19.65,19.65,0,0,1-2.3-.14,27.33,27.33,0,0,0,14.8,4.33" transform="translate(-6.47 -10.88)" fill="#fff"/></g></svg>